# xmcd
#
# Track frame offsets: 
#        183
#        14960
#        31713
#        42640
#        55878
#        66275
#        78545
#        99633
#        115183
#        134685
#        145815
#        159263
#        173293
#        186255
#
# Disc length: 2675 seconds
#
# Revision: 2
# Processed by: cddbd v1.4PL0 Copyright (c) Steve Scherf et al.
# Submitted via: ExactAudioCopy v0.90b4
#
DISCID=c20a710e
DTITLE=Teixeirinha - Teixeirinha
DYEAR=1900
DGENRE=Country
TTITLE0=Coração de Luto
TTITLE1=Caminhoneiro Amigo
TTITLE2=Ébrio de Amor
TTITLE3=Gaúcho de Passo Fundo
TTITLE4=Minha Serenata
TTITLE5=Milonga da Fronteira
TTITLE6=Bota Desafio Nisso
TTITLE7=Meu Pedaço de Chão
TTITLE8=Chimarreando Sozinho
TTITLE9=Motorista Brasileiro
TTITLE10=Gauchinha Pelotense
TTITLE11=Rei do Baralho
TTITLE12=Cobra Sucurí
TTITLE13=Quando Sopra o Minuano
EXTD=ID3G: 2
EXTT0=
EXTT1=
EXTT2=
EXTT3=
EXTT4=
EXTT5=
EXTT6=
EXTT7=
EXTT8=
EXTT9=
EXTT10=
EXTT11=
EXTT12=
EXTT13=
PLAYORDER=
